<svg width="190" height="19" viewBox="0 0 190 19" fill="none" xmlns="http://www.w3.org/2000/svg">
<line x1="12" y1="10.6" x2="86" y2="10.6" stroke="black" stroke-width="0.8"/>
<g clip-path="url(#clip0_33_2)">
<path d="M2.47885 10.2456C2.43259 10.2967 2.4067 10.363 2.4061 10.4319C2.4055 10.5008 2.43022 10.5676 2.47558 10.6195C4.80376 13.2856 7.54019 14.5588 9.79552 14.0255C11.3311 13.6627 12.4458 12.5226 12.953 10.805L14.3159 10.8169C14.3537 10.8186 14.3913 10.8126 14.4267 10.7994C14.4621 10.7862 14.4945 10.766 14.5219 10.74C14.5493 10.714 14.5711 10.6828 14.5862 10.6481C14.6013 10.6135 14.6092 10.5762 14.6095 10.5384C14.6099 10.5006 14.6026 10.4632 14.5881 10.4283C14.5737 10.3934 14.5523 10.3618 14.5254 10.3353C14.4984 10.3088 14.4664 10.2881 14.4313 10.2742C14.3962 10.2604 14.3586 10.2538 14.3208 10.2548L12.9579 10.2429C12.7111 9.35043 12.2996 8.60932 11.748 8.04797C11.2297 7.52006 10.5751 7.14615 9.85711 6.96779C7.61143 6.3953 4.85352 7.62087 2.47885 10.2456ZM9.71744 7.51316C10.9961 7.83921 11.9274 8.80098 12.3699 10.2384L6.36484 10.186C6.292 10.188 6.22274 10.2181 6.17167 10.2701C6.12061 10.3221 6.09171 10.3919 6.09107 10.4647C6.09044 10.5376 6.11811 10.6079 6.16826 10.6607C6.21842 10.7136 6.28713 10.745 6.35994 10.7482L12.3657 10.7999C11.8981 12.2294 10.9528 13.1742 9.66605 13.4785C7.66947 13.95 5.2159 12.8155 3.06488 10.436C5.25707 8.09773 7.73041 7.00591 9.71811 7.5125L9.71744 7.51316Z" fill="black"/>
</g>
<g clip-path="url(#clip1_33_2)">
<path d="M20.0647 17.7702C20.0735 17.827 20.1029 17.8785 20.1472 17.9151C20.1915 17.9516 20.2477 17.9706 20.3051 17.9684C23.2527 17.8588 25.5123 16.7544 26.3498 15.0141C26.9201 13.8294 26.7663 12.5096 25.92 11.2803L26.6425 10.4039C26.6633 10.3804 26.6792 10.3528 26.6892 10.323C26.6992 10.2931 26.7031 10.2616 26.7007 10.2302C26.6982 10.1988 26.6894 10.1683 26.6749 10.1403C26.6604 10.1124 26.6404 10.0877 26.6161 10.0677C26.5918 10.0477 26.5637 10.0328 26.5335 10.0238C26.5034 10.0149 26.4717 10.0121 26.4404 10.0157C26.4092 10.0193 26.3789 10.0291 26.3515 10.0446C26.3241 10.0601 26.3002 10.081 26.281 10.1059L25.5586 10.9823C24.8511 10.6741 24.1554 10.552 23.5025 10.6148C22.8888 10.6737 22.3034 10.9015 21.8113 11.2729C20.2629 12.427 19.6102 14.8558 20.0647 17.7702ZM22.0913 11.6494C22.973 10.9923 24.0843 10.8936 25.2473 11.3608L22.0641 15.2223C22.0271 15.2705 22.0103 15.3312 22.0172 15.3915C22.0241 15.4519 22.0541 15.5072 22.101 15.5458C22.1479 15.5844 22.2079 15.6034 22.2684 15.5986C22.329 15.5939 22.3853 15.5658 22.4256 15.5203L25.6087 11.658C26.2893 12.7105 26.4053 13.8181 25.9276 14.8111C25.1859 16.3514 23.1644 17.3454 20.4954 17.4906C20.1307 14.8446 20.7207 12.6702 22.0912 11.6486L22.0913 11.6494Z" fill="black"/>
</g>
<path d="M24 11C25.0659 10.8799 26.5648 9.5331 26.5648 8.39875C26.5648 6.8647 27.1605 4.10899 29.1295 5.28368C30.2175 5.93284 30.2291 7.85336 29.4778 8.46298C29.0995 8.76989 28.8915 8.2006 28.417 8.09367C27.4969 7.88628 28.3221 7.02583 28.5595 6.66459" stroke="#0B0B0B" stroke-width="0.6" stroke-linecap="round"/>
<g clip-path="url(#clip2_33_2)">
<path d="M52.0647 17.7702C52.0735 17.827 52.1029 17.8785 52.1472 17.9151C52.1915 17.9516 52.2477 17.9706 52.3051 17.9684C55.2527 17.8588 57.5123 16.7544 58.3498 15.0141C58.9201 13.8294 58.7663 12.5096 57.92 11.2803L58.6425 10.4039C58.6633 10.3804 58.6792 10.3528 58.6892 10.323C58.6992 10.2931 58.7031 10.2616 58.7007 10.2302C58.6982 10.1988 58.6894 10.1683 58.6749 10.1403C58.6604 10.1124 58.6404 10.0877 58.6161 10.0677C58.5918 10.0477 58.5637 10.0328 58.5335 10.0238C58.5034 10.0149 58.4717 10.0121 58.4404 10.0157C58.4092 10.0193 58.3789 10.0291 58.3515 10.0446C58.3241 10.0601 58.3002 10.081 58.281 10.1059L57.5586 10.9823C56.8511 10.6741 56.1554 10.552 55.5025 10.6148C54.8888 10.6737 54.3034 10.9015 53.8113 11.2729C52.2629 12.427 51.6102 14.8558 52.0647 17.7702ZM54.0913 11.6494C54.973 10.9923 56.0843 10.8936 57.2473 11.3608L54.0641 15.2223C54.0271 15.2705 54.0103 15.3312 54.0172 15.3915C54.0241 15.4519 54.0541 15.5072 54.101 15.5458C54.1479 15.5844 54.2079 15.6034 54.2684 15.5986C54.329 15.5939 54.3853 15.5658 54.4256 15.5203L57.6087 11.658C58.2893 12.7105 58.4053 13.8181 57.9276 14.8111C57.1859 16.3514 55.1644 17.3454 52.4954 17.4906C52.1307 14.8446 52.7207 12.6702 54.0912 11.6486L54.0913 11.6494Z" fill="black"/>
</g>
<path d="M56 11C57.0659 10.8799 58.5648 9.5331 58.5648 8.39875C58.5648 6.8647 59.1605 4.10899 61.1295 5.28368C62.2175 5.93284 62.2291 7.85336 61.4778 8.46298C61.0995 8.76989 60.8915 8.2006 60.417 8.09367C59.4969 7.88628 60.3221 7.02583 60.5595 6.66459" stroke="#0B0B0B" stroke-width="0.6" stroke-linecap="round"/>
<g clip-path="url(#clip3_33_2)">
<path d="M40.4486 1.62613C40.4057 1.58795 40.3502 1.56686 40.2928 1.56686C40.2354 1.56686 40.1799 1.58795 40.137 1.62613C37.9323 3.58559 36.8912 5.87512 37.352 7.75061C37.6655 9.02755 38.6236 9.94817 40.0586 10.3583L40.0586 11.4941C40.0575 11.5256 40.0627 11.5569 40.074 11.5863C40.0852 11.6157 40.1023 11.6425 40.1242 11.6652C40.146 11.6878 40.1722 11.7058 40.2012 11.7181C40.2302 11.7304 40.2613 11.7368 40.2928 11.7368C40.3243 11.7368 40.3554 11.7304 40.3844 11.7181C40.4134 11.7058 40.4396 11.6878 40.4614 11.6652C40.4833 11.6425 40.5004 11.6157 40.5116 11.5863C40.5229 11.5569 40.5281 11.5256 40.527 11.4941L40.527 10.3583C41.2689 10.1462 41.8835 9.79791 42.3473 9.33415C42.7834 8.89838 43.0902 8.35024 43.2336 7.75061C43.6944 5.87512 42.653 3.58587 40.4486 1.62613ZM42.7782 7.6382C42.5158 8.70604 41.7211 9.4891 40.5265 9.86834L40.5265 4.86391C40.5243 4.80322 40.4987 4.74573 40.455 4.70355C40.4113 4.66137 40.353 4.6378 40.2922 4.6378C40.2315 4.6378 40.1732 4.66137 40.1295 4.70355C40.0858 4.74573 40.0602 4.80322 40.058 4.86391L40.0586 9.8689C38.8639 9.48965 38.0698 8.7088 37.8069 7.63875C37.3995 5.97843 38.327 3.92561 40.2942 2.11586C42.2586 3.92561 43.1864 5.9787 42.7787 7.63875L42.7782 7.6382Z" fill="black"/>
</g>
<path d="M41.7184 9.35338C40.9723 10.1241 40.6724 12.1166 41.394 12.9919C42.3698 14.1756 43.6629 16.681 41.3964 17.027C40.1439 17.2182 38.9134 15.7436 39.1054 14.7953C39.202 14.3179 39.7247 14.6248 40.1588 14.4055C41.0007 13.9803 40.9113 15.1691 40.9578 15.5989" stroke="#0B0B0B" stroke-width="0.6" stroke-linecap="round"/>
<g clip-path="url(#clip4_33_2)">
<path d="M72.4486 1.62613C72.4057 1.58795 72.3502 1.56686 72.2928 1.56686C72.2354 1.56686 72.1799 1.58795 72.137 1.62613C69.9323 3.58559 68.8912 5.87512 69.352 7.75061C69.6655 9.02755 70.6236 9.94817 72.0586 10.3583L72.0586 11.4941C72.0575 11.5256 72.0627 11.5569 72.074 11.5863C72.0852 11.6157 72.1023 11.6425 72.1242 11.6652C72.146 11.6878 72.1722 11.7058 72.2012 11.7181C72.2302 11.7304 72.2613 11.7368 72.2928 11.7368C72.3243 11.7368 72.3554 11.7304 72.3844 11.7181C72.4134 11.7058 72.4396 11.6878 72.4614 11.6652C72.4833 11.6425 72.5004 11.6157 72.5116 11.5863C72.5229 11.5569 72.5281 11.5256 72.527 11.4941L72.527 10.3583C73.2689 10.1462 73.8835 9.79791 74.3473 9.33415C74.7834 8.89838 75.0902 8.35024 75.2336 7.75061C75.6944 5.87512 74.653 3.58587 72.4486 1.62613ZM74.7782 7.6382C74.5158 8.70604 73.7211 9.4891 72.5265 9.86834L72.5265 4.86391C72.5243 4.80322 72.4987 4.74573 72.455 4.70355C72.4113 4.66137 72.353 4.6378 72.2922 4.6378C72.2315 4.6378 72.1732 4.66137 72.1295 4.70355C72.0858 4.74573 72.0602 4.80322 72.058 4.86391L72.0586 9.8689C70.8639 9.48965 70.0698 8.7088 69.8069 7.63875C69.3995 5.97843 70.327 3.92561 72.2942 2.11586C74.2586 3.92561 75.1864 5.9787 74.7787 7.63875L74.7782 7.6382Z" fill="black"/>
</g>
<path d="M73.7184 9.35338C72.9723 10.1241 72.6724 12.1166 73.394 12.9919C74.3698 14.1756 75.6629 16.681 73.3964 17.027C72.1439 17.2182 70.9134 15.7436 71.1054 14.7953C71.202 14.3179 71.7247 14.6248 72.1588 14.4055C73.0007 13.9803 72.9113 15.1691 72.9578 15.5989" stroke="#0B0B0B" stroke-width="0.6" stroke-linecap="round"/>
<line x1="178" y1="8.4" x2="104" y2="8.4" stroke="black" stroke-width="0.8"/>
<g clip-path="url(#clip5_33_2)">
<path d="M187.521 8.7544C187.567 8.70331 187.593 8.63701 187.594 8.56809C187.595 8.49917 187.57 8.43242 187.524 8.38053C185.196 5.71443 182.46 4.44124 180.204 4.97445C178.669 5.33727 177.554 6.4774 177.047 8.19496L175.684 8.18307C175.646 8.1814 175.609 8.18736 175.573 8.20058C175.538 8.21379 175.506 8.234 175.478 8.26C175.451 8.28599 175.429 8.31724 175.414 8.35187C175.399 8.38651 175.391 8.42382 175.39 8.46159C175.39 8.49936 175.397 8.5368 175.412 8.5717C175.426 8.60659 175.448 8.63821 175.475 8.66468C175.502 8.69115 175.534 8.71192 175.569 8.72575C175.604 8.73958 175.641 8.7462 175.679 8.74519L177.042 8.75709C177.289 9.64957 177.7 10.3907 178.252 10.952C178.77 11.4799 179.425 11.8538 180.143 12.0322C182.389 12.6047 185.146 11.3791 187.521 8.7544ZM180.283 11.4868C179.004 11.1608 178.073 10.199 177.63 8.76156L183.635 8.81396C183.708 8.81203 183.777 8.78189 183.828 8.7299C183.879 8.67792 183.908 8.60814 183.909 8.53527C183.91 8.46239 183.882 8.39212 183.832 8.33925C183.782 8.28638 183.713 8.25504 183.64 8.25183L177.634 8.20008C178.102 6.77056 179.047 5.82584 180.334 5.52151C182.331 5.05002 184.784 6.1845 186.935 8.56399C184.743 10.9023 182.27 11.9941 180.282 11.4875L180.283 11.4868Z" fill="black"/>
</g>
<path d="M169.935 1.22977C169.926 1.17301 169.897 1.12148 169.853 1.08494C169.808 1.04841 169.752 1.02942 169.695 1.03158C166.747 1.14116 164.488 2.24564 163.65 3.98587C163.08 5.17059 163.234 6.49045 164.08 7.71968L163.358 8.59608C163.337 8.61965 163.321 8.64717 163.311 8.67702C163.301 8.70686 163.297 8.73842 163.299 8.76979C163.302 8.80117 163.311 8.83173 163.325 8.85965C163.34 8.88757 163.36 8.91228 163.384 8.9323C163.408 8.95232 163.436 8.96724 163.466 8.97618C163.497 8.98512 163.528 8.98788 163.56 8.98431C163.591 8.98074 163.621 8.97091 163.648 8.95541C163.676 8.9399 163.7 8.91904 163.719 8.89406L164.441 8.01765C165.149 8.32588 165.845 8.44804 166.497 8.38518C167.111 8.32635 167.697 8.09855 168.189 7.72708C169.737 6.57297 170.39 4.14415 169.935 1.22977ZM167.909 7.35062C167.027 8.00768 165.916 8.10645 164.753 7.6392L167.936 3.77766C167.973 3.72946 167.99 3.66881 167.983 3.60847C167.976 3.54814 167.946 3.49283 167.899 3.4542C167.852 3.41557 167.792 3.39664 167.732 3.40139C167.671 3.40615 167.615 3.43421 167.574 3.47968L164.391 7.34201C163.711 6.2895 163.595 5.18185 164.072 4.18892C164.814 2.64862 166.836 1.6546 169.505 1.50944C169.869 4.15542 169.279 6.32979 167.909 7.3514L167.909 7.35062Z" fill="black"/>
<path d="M166 8C164.934 8.12012 163.435 9.4669 163.435 10.6012C163.435 12.1353 162.839 14.891 160.871 13.7163C159.782 13.0672 159.771 11.1466 160.522 10.537C160.901 10.2301 161.109 10.7994 161.583 10.9063C162.503 11.1137 161.678 11.9742 161.44 12.3354" stroke="#0B0B0B" stroke-width="0.6" stroke-linecap="round"/>
<path d="M137.935 1.22977C137.926 1.17301 137.897 1.12148 137.853 1.08494C137.808 1.04841 137.752 1.02942 137.695 1.03158C134.747 1.14116 132.488 2.24564 131.65 3.98587C131.08 5.17059 131.234 6.49045 132.08 7.71968L131.358 8.59608C131.337 8.61965 131.321 8.64717 131.311 8.67702C131.301 8.70686 131.297 8.73842 131.299 8.76979C131.302 8.80117 131.311 8.83173 131.325 8.85965C131.34 8.88757 131.36 8.91228 131.384 8.9323C131.408 8.95232 131.436 8.96724 131.466 8.97618C131.497 8.98512 131.528 8.98788 131.56 8.98431C131.591 8.98074 131.621 8.97091 131.648 8.95541C131.676 8.9399 131.7 8.91904 131.719 8.89406L132.441 8.01765C133.149 8.32588 133.845 8.44804 134.497 8.38518C135.111 8.32635 135.697 8.09855 136.189 7.72708C137.737 6.57297 138.39 4.14415 137.935 1.22977ZM135.909 7.35062C135.027 8.00768 133.916 8.10645 132.753 7.6392L135.936 3.77766C135.973 3.72946 135.99 3.66881 135.983 3.60847C135.976 3.54814 135.946 3.49283 135.899 3.4542C135.852 3.41557 135.792 3.39664 135.732 3.40139C135.671 3.40615 135.615 3.43421 135.574 3.47968L132.391 7.34201C131.711 6.2895 131.595 5.18185 132.072 4.18892C132.814 2.64862 134.836 1.6546 137.505 1.50944C137.869 4.15542 137.279 6.32979 135.909 7.3514L135.909 7.35062Z" fill="black"/>
<path d="M134 8C132.934 8.12012 131.435 9.4669 131.435 10.6012C131.435 12.1353 130.839 14.891 128.871 13.7163C127.782 13.0672 127.771 11.1466 128.522 10.537C128.901 10.2301 129.109 10.7994 129.583 10.9063C130.503 11.1137 129.678 11.9742 129.44 12.3354" stroke="#0B0B0B" stroke-width="0.6" stroke-linecap="round"/>
<g clip-path="url(#clip6_33_2)">
<path d="M149.551 17.3739C149.594 17.412 149.65 17.4331 149.707 17.4331C149.765 17.4331 149.82 17.412 149.863 17.3739C152.068 15.4144 153.109 13.1249 152.648 11.2494C152.335 9.97245 151.376 9.05183 149.941 8.64165L149.941 7.50586C149.943 7.47441 149.937 7.44305 149.926 7.41367C149.915 7.38428 149.898 7.35746 149.876 7.33482C149.854 7.31217 149.828 7.29416 149.799 7.28186C149.77 7.26956 149.739 7.26322 149.707 7.26322C149.676 7.26322 149.645 7.26956 149.616 7.28186C149.587 7.29416 149.56 7.31217 149.539 7.33482C149.517 7.35746 149.5 7.38428 149.488 7.41367C149.477 7.44305 149.472 7.47441 149.473 7.50586L149.473 8.64165C148.731 8.85379 148.117 9.20209 147.653 9.66585C147.217 10.1016 146.91 10.6498 146.766 11.2494C146.306 13.1249 147.347 15.4141 149.551 17.3739ZM147.222 11.3618C147.484 10.294 148.279 9.5109 149.474 9.13166L149.474 14.1361C149.476 14.1968 149.501 14.2543 149.545 14.2965C149.589 14.3386 149.647 14.3622 149.708 14.3622C149.769 14.3622 149.827 14.3386 149.871 14.2965C149.914 14.2543 149.94 14.1968 149.942 14.1361L149.941 9.1311C151.136 9.51035 151.93 10.2912 152.193 11.3613C152.601 13.0216 151.673 15.0744 149.706 16.8841C147.741 15.0744 146.814 13.0213 147.221 11.3613L147.222 11.3618Z" fill="black"/>
</g>
<path d="M148.282 9.64662C149.028 8.87594 149.328 6.88336 148.606 6.00807C147.63 4.82435 146.337 2.31901 148.604 1.97304C149.856 1.78184 151.087 3.25642 150.895 4.20472C150.798 4.68214 150.275 4.37519 149.841 4.59445C148.999 5.01971 149.089 3.83089 149.042 3.40111" stroke="#0B0B0B" stroke-width="0.6" stroke-linecap="round"/>
<g clip-path="url(#clip7_33_2)">
<path d="M117.551 17.3739C117.594 17.412 117.65 17.4331 117.707 17.4331C117.765 17.4331 117.82 17.412 117.863 17.3739C120.068 15.4144 121.109 13.1249 120.648 11.2494C120.335 9.97245 119.376 9.05183 117.941 8.64165L117.941 7.50586C117.943 7.47441 117.937 7.44305 117.926 7.41367C117.915 7.38428 117.898 7.35746 117.876 7.33482C117.854 7.31217 117.828 7.29416 117.799 7.28186C117.77 7.26956 117.739 7.26322 117.707 7.26322C117.676 7.26322 117.645 7.26956 117.616 7.28186C117.587 7.29416 117.56 7.31217 117.539 7.33482C117.517 7.35746 117.5 7.38428 117.488 7.41367C117.477 7.44305 117.472 7.47441 117.473 7.50586L117.473 8.64165C116.731 8.85379 116.117 9.20209 115.653 9.66585C115.217 10.1016 114.91 10.6498 114.766 11.2494C114.306 13.1249 115.347 15.4141 117.551 17.3739ZM115.222 11.3618C115.484 10.294 116.279 9.5109 117.474 9.13166L117.474 14.1361C117.476 14.1968 117.501 14.2543 117.545 14.2965C117.589 14.3386 117.647 14.3622 117.708 14.3622C117.769 14.3622 117.827 14.3386 117.871 14.2965C117.914 14.2543 117.94 14.1968 117.942 14.1361L117.941 9.1311C119.136 9.51035 119.93 10.2912 120.193 11.3613C120.601 13.0216 119.673 15.0744 117.706 16.8841C115.741 15.0744 114.814 13.0213 115.221 11.3613L115.222 11.3618Z" fill="black"/>
</g>
<path d="M116.282 9.64662C117.028 8.87594 117.328 6.88336 116.606 6.00807C115.63 4.82435 114.337 2.31901 116.604 1.97304C117.856 1.78184 119.087 3.25642 118.895 4.20472C118.798 4.68214 118.275 4.37519 117.841 4.59445C116.999 5.01971 117.089 3.83089 117.042 3.40111" stroke="#0B0B0B" stroke-width="0.6" stroke-linecap="round"/>
<g clip-path="url(#clip8_33_2)">
<path d="M94.7054 2.646L93.8228 4.00422C92.6836 3.08285 91.0745 2.79722 89.824 3.05335C88.1222 3.40178 86.6938 4.93919 86.7648 7.16147C86.8396 9.50382 88.4745 11.2149 90.0426 12.6247C90.8267 13.3295 91.6314 13.9711 92.2279 14.5477C93.4055 15.6121 93.976 17.4341 93.976 17.4341C93.976 17.4341 94.7427 15.5747 95.7242 14.635C96.3396 14.0506 97.1516 13.3972 97.9531 12.6684C99.5562 11.2108 101.216 9.41735 101.144 7.11785C101.144 3.29572 97.356 3.33619 95.8972 4.66488C96.501 4.34532 97.1509 4.27747 97.7346 4.40819C98.8064 4.64828 99.6938 5.53116 99.745 7.16157C99.7938 8.72157 98.5234 10.2268 96.9916 11.6195C96.2257 12.3158 95.4368 12.9459 94.7627 13.5861C94.4047 13.9262 94.2396 14.2271 93.976 14.5797C93.7124 14.2052 93.549 13.8901 93.1894 13.5424C91.4599 11.575 88.712 9.45235 88.6022 7.11782C88.5797 5.17344 90.8554 4.66144 92.0786 5.52282L90.6435 6.31213C92.7495 6.66038 94.5418 7.47963 96.4434 8.67425L94.7054 2.646H94.7054Z" fill="black"/>
</g>
<defs>
<clipPath id="clip0_33_2">
<rect width="12" height="12" fill="white" transform="translate(8.41092 18.9699) rotate(-134.5)"/>
</clipPath>
<clipPath id="clip1_33_2">
<rect width="10" height="10" fill="white" transform="translate(19 9)"/>
</clipPath>
<clipPath id="clip2_33_2">
<rect width="10" height="10" fill="white" transform="translate(51 9)"/>
</clipPath>
<clipPath id="clip3_33_2">
<rect width="10" height="10" fill="white" transform="translate(46.8487 7.71625) rotate(140.5)"/>
</clipPath>
<clipPath id="clip4_33_2">
<rect width="10" height="10" fill="white" transform="translate(78.8487 7.71625) rotate(140.5)"/>
</clipPath>
<clipPath id="clip5_33_2">
<rect width="12" height="12" fill="white" transform="translate(181.589 0.0300827) rotate(45.5)"/>
</clipPath>
<clipPath id="clip6_33_2">
<rect width="10" height="10" fill="white" transform="translate(143.151 11.2838) rotate(-39.5)"/>
</clipPath>
<clipPath id="clip7_33_2">
<rect width="10" height="10" fill="white" transform="translate(111.151 11.2838) rotate(-39.5)"/>
</clipPath>
<clipPath id="clip8_33_2">
<rect width="16" height="16" fill="white" transform="translate(86 2)"/>
</clipPath>
</defs>
</svg>
