<svg width="190" height="19" viewBox="0 0 190 19" fill="none" xmlns="http://www.w3.org/2000/svg">
<line x1="12" y1="10.6" x2="86" y2="10.6" stroke="#F7E7CE" stroke-width="0.8"/>
<g clip-path="url(#clip0_39_22)">
<path d="M2.4788 10.2456C2.43254 10.2967 2.40665 10.363 2.40605 10.4319C2.40545 10.5008 2.43018 10.5676 2.47554 10.6195C4.80371 13.2856 7.54015 14.5587 9.79547 14.0255C11.331 13.6627 12.4458 12.5226 12.953 10.805L14.3159 10.8169C14.3536 10.8186 14.3913 10.8126 14.4267 10.7994C14.462 10.7862 14.4944 10.766 14.5218 10.74C14.5492 10.714 14.5711 10.6828 14.5862 10.6481C14.6012 10.6135 14.6092 10.5762 14.6095 10.5384C14.6098 10.5006 14.6025 10.4632 14.5881 10.4283C14.5736 10.3934 14.5523 10.3618 14.5253 10.3353C14.4984 10.3088 14.4664 10.2881 14.4313 10.2742C14.3961 10.2604 14.3585 10.2538 14.3208 10.2548L12.9579 10.2429C12.7111 9.35042 12.2996 8.60931 11.748 8.04796C11.2296 7.52005 10.5751 7.14615 9.85707 6.96778C7.61139 6.39529 4.85348 7.62086 2.4788 10.2456ZM9.7174 7.51315C10.996 7.83921 11.9273 8.80097 12.3699 10.2384L6.3648 10.186C6.29195 10.188 6.2227 10.2181 6.17163 10.2701C6.12056 10.3221 6.09166 10.3919 6.09103 10.4647C6.09039 10.5376 6.11807 10.6079 6.16822 10.6607C6.21837 10.7136 6.28709 10.745 6.35989 10.7482L12.3657 10.7999C11.8981 12.2294 10.9528 13.1742 9.666 13.4785C7.66943 13.95 5.21585 12.8155 3.06483 10.436C5.25702 8.09772 7.73036 7.0059 9.71807 7.5125L9.7174 7.51315Z" fill="#F7E7CE"/>
</g>
<path d="M20.0646 17.7702C20.0735 17.827 20.1028 17.8785 20.1472 17.9151C20.1915 17.9516 20.2477 17.9706 20.3051 17.9684C23.2527 17.8588 25.5123 16.7544 26.3497 15.0141C26.9201 13.8294 26.7663 12.5096 25.92 11.2803L26.6424 10.4039C26.6633 10.3804 26.6792 10.3528 26.6892 10.323C26.6992 10.2931 26.7031 10.2616 26.7006 10.2302C26.6981 10.1988 26.6894 10.1683 26.6748 10.1404C26.6603 10.1124 26.6403 10.0877 26.616 10.0677C26.5917 10.0477 26.5637 10.0328 26.5335 10.0238C26.5033 10.0149 26.4716 10.0121 26.4404 10.0157C26.4091 10.0193 26.3789 10.0291 26.3515 10.0446C26.3241 10.0601 26.3001 10.081 26.2809 10.1059L25.5585 10.9824C24.8511 10.6741 24.1553 10.552 23.5025 10.6148C22.8887 10.6737 22.3033 10.9015 21.8113 11.2729C20.2628 12.427 19.6102 14.8559 20.0646 17.7702ZM22.0912 11.6494C22.9729 10.9923 24.0842 10.8936 25.2472 11.3608L22.064 15.2223C22.0271 15.2705 22.0103 15.3312 22.0172 15.3915C22.024 15.4519 22.0541 15.5072 22.1009 15.5458C22.1478 15.5844 22.2078 15.6034 22.2684 15.5986C22.3289 15.5939 22.3852 15.5658 22.4255 15.5203L25.6086 11.658C26.2892 12.7105 26.4053 13.8182 25.9275 14.8111C25.1858 16.3514 23.1644 17.3454 20.4953 17.4906C20.1306 14.8446 20.7206 12.6702 22.0912 11.6486L22.0912 11.6494Z" fill="#F7E7CE"/>
<path d="M24 11C25.0659 10.8799 26.5647 9.5331 26.5647 8.39875C26.5647 6.8647 27.1605 4.10899 29.1294 5.28368C30.2175 5.93284 30.2291 7.85336 29.4777 8.46298C29.0995 8.76989 28.8915 8.2006 28.417 8.09367C27.4969 7.88628 28.3221 7.02583 28.5595 6.66459" stroke="#F7C7CE" stroke-width="0.6" stroke-linecap="round"/>
<path d="M52.0646 17.7702C52.0735 17.827 52.1028 17.8785 52.1472 17.9151C52.1915 17.9516 52.2477 17.9706 52.3051 17.9684C55.2527 17.8588 57.5123 16.7544 58.3497 15.0141C58.9201 13.8294 58.7663 12.5096 57.92 11.2803L58.6424 10.4039C58.6633 10.3804 58.6792 10.3528 58.6892 10.323C58.6992 10.2931 58.7031 10.2616 58.7006 10.2302C58.6981 10.1988 58.6894 10.1683 58.6748 10.1404C58.6603 10.1124 58.6403 10.0877 58.616 10.0677C58.5917 10.0477 58.5637 10.0328 58.5335 10.0238C58.5033 10.0149 58.4716 10.0121 58.4404 10.0157C58.4091 10.0193 58.3789 10.0291 58.3515 10.0446C58.3241 10.0601 58.3001 10.081 58.2809 10.1059L57.5585 10.9824C56.8511 10.6741 56.1553 10.552 55.5025 10.6148C54.8887 10.6737 54.3033 10.9015 53.8113 11.2729C52.2628 12.427 51.6102 14.8559 52.0646 17.7702ZM54.0912 11.6494C54.9729 10.9923 56.0842 10.8936 57.2472 11.3608L54.064 15.2223C54.0271 15.2705 54.0103 15.3312 54.0172 15.3915C54.024 15.4519 54.0541 15.5072 54.1009 15.5458C54.1478 15.5844 54.2078 15.6034 54.2684 15.5986C54.3289 15.5939 54.3852 15.5658 54.4255 15.5203L57.6086 11.658C58.2892 12.7105 58.4053 13.8182 57.9275 14.8111C57.1858 16.3514 55.1644 17.3454 52.4953 17.4906C52.1306 14.8446 52.7206 12.6702 54.0912 11.6486L54.0912 11.6494Z" fill="#F7E7CE"/>
<path d="M56 11C57.0659 10.8799 58.5647 9.5331 58.5647 8.39875C58.5647 6.8647 59.1605 4.10899 61.1294 5.28368C62.2175 5.93284 62.2291 7.85336 61.4777 8.46298C61.0995 8.76989 60.8915 8.2006 60.417 8.09367C59.4969 7.88628 60.3221 7.02583 60.5595 6.66459" stroke="#F7C7CE" stroke-width="0.6" stroke-linecap="round"/>
<g clip-path="url(#clip1_39_22)">
<path d="M40.4485 1.62615C40.4056 1.58797 40.3502 1.56688 40.2927 1.56688C40.2353 1.56688 40.1799 1.58797 40.137 1.62615C37.9322 3.58561 36.8912 5.87514 37.3519 7.75063C37.6654 9.02756 38.6236 9.94818 40.0585 10.3584L40.0585 11.4942C40.0574 11.5256 40.0626 11.557 40.0739 11.5864C40.0852 11.6157 40.1023 11.6426 40.1241 11.6652C40.146 11.6878 40.1722 11.7059 40.2011 11.7182C40.2301 11.7305 40.2613 11.7368 40.2927 11.7368C40.3242 11.7368 40.3554 11.7305 40.3843 11.7182C40.4133 11.7059 40.4395 11.6878 40.4614 11.6652C40.4832 11.6426 40.5003 11.6157 40.5116 11.5864C40.5228 11.557 40.5281 11.5256 40.527 11.4942L40.527 10.3584C41.2689 10.1462 41.8835 9.79792 42.3472 9.33416C42.7834 8.89839 43.0902 8.35025 43.2336 7.75063C43.6943 5.87514 42.653 3.58588 40.4485 1.62615ZM42.7781 7.63821C42.5157 8.70605 41.721 9.48912 40.5264 9.86836L40.5264 4.86392C40.5243 4.80323 40.4987 4.74574 40.455 4.70356C40.4113 4.66139 40.3529 4.63781 40.2922 4.63781C40.2315 4.63781 40.1731 4.66139 40.1294 4.70356C40.0857 4.74574 40.0601 4.80323 40.058 4.86392L40.0585 9.86891C38.8639 9.48967 38.0698 8.70881 37.8068 7.63876C37.3994 5.97844 38.3269 3.92562 40.2941 2.11587C42.2586 3.92562 43.1864 5.97872 42.7787 7.63876L42.7781 7.63821Z" fill="#F7E7CE"/>
</g>
<path d="M41.7184 9.35338C40.9723 10.1241 40.6724 12.1166 41.394 12.9919C42.3698 14.1756 43.6629 16.681 41.3964 17.027C40.1439 17.2181 38.9134 15.7436 39.1054 14.7953C39.202 14.3179 39.7247 14.6248 40.1588 14.4055C41.0007 13.9803 40.9113 15.1691 40.9578 15.5989" stroke="#F7C7CE" stroke-width="0.6" stroke-linecap="round"/>
<g clip-path="url(#clip2_39_22)">
<path d="M72.4485 1.62615C72.4056 1.58797 72.3502 1.56688 72.2927 1.56688C72.2353 1.56688 72.1799 1.58797 72.137 1.62615C69.9322 3.58561 68.8912 5.87514 69.3519 7.75063C69.6654 9.02756 70.6236 9.94818 72.0585 10.3584L72.0585 11.4942C72.0574 11.5256 72.0626 11.557 72.0739 11.5864C72.0852 11.6157 72.1023 11.6426 72.1241 11.6652C72.146 11.6878 72.1722 11.7059 72.2011 11.7182C72.2301 11.7305 72.2613 11.7368 72.2927 11.7368C72.3242 11.7368 72.3554 11.7305 72.3843 11.7182C72.4133 11.7059 72.4395 11.6878 72.4614 11.6652C72.4832 11.6426 72.5003 11.6157 72.5116 11.5864C72.5228 11.557 72.5281 11.5256 72.527 11.4942L72.527 10.3584C73.2689 10.1462 73.8835 9.79792 74.3472 9.33416C74.7834 8.89839 75.0902 8.35025 75.2336 7.75063C75.6943 5.87514 74.653 3.58588 72.4485 1.62615ZM74.7781 7.63821C74.5157 8.70605 73.721 9.48912 72.5264 9.86836L72.5264 4.86392C72.5243 4.80323 72.4987 4.74574 72.455 4.70356C72.4113 4.66139 72.3529 4.63781 72.2922 4.63781C72.2315 4.63781 72.1731 4.66139 72.1294 4.70356C72.0857 4.74574 72.0601 4.80323 72.058 4.86392L72.0585 9.86891C70.8639 9.48967 70.0698 8.70881 69.8068 7.63876C69.3994 5.97844 70.3269 3.92562 72.2941 2.11587C74.2586 3.92562 75.1864 5.97872 74.7787 7.63876L74.7781 7.63821Z" fill="#F7E7CE"/>
</g>
<path d="M73.7184 9.35338C72.9723 10.1241 72.6724 12.1166 73.394 12.9919C74.3698 14.1756 75.6629 16.681 73.3964 17.027C72.1439 17.2181 70.9134 15.7436 71.1054 14.7953C71.202 14.3179 71.7247 14.6248 72.1588 14.4055C73.0007 13.9803 72.9113 15.1691 72.9578 15.5989" stroke="#F7C7CE" stroke-width="0.6" stroke-linecap="round"/>
<line x1="178" y1="8.4" x2="104" y2="8.4" stroke="#F7E7CE" stroke-width="0.8"/>
<g clip-path="url(#clip3_39_22)">
<path d="M187.521 8.75441C187.567 8.70332 187.593 8.63702 187.594 8.56809C187.595 8.49917 187.57 8.43243 187.524 8.38054C185.196 5.71444 182.46 4.44125 180.205 4.97446C178.669 5.33728 177.554 6.47741 177.047 8.19497L175.684 8.18307C175.646 8.18141 175.609 8.18737 175.573 8.20058C175.538 8.2138 175.506 8.23401 175.478 8.26C175.451 8.286 175.429 8.31724 175.414 8.35188C175.399 8.38651 175.391 8.42383 175.391 8.4616C175.39 8.49936 175.397 8.53681 175.412 8.57171C175.426 8.6066 175.448 8.63822 175.475 8.66469C175.502 8.69116 175.534 8.71193 175.569 8.72576C175.604 8.73959 175.641 8.74621 175.679 8.7452L177.042 8.7571C177.289 9.64957 177.7 10.3907 178.252 10.952C178.77 11.4799 179.425 11.8539 180.143 12.0322C182.389 12.6047 185.147 11.3791 187.521 8.75441ZM180.283 11.4868C179.004 11.1608 178.073 10.199 177.63 8.76156L183.635 8.81397C183.708 8.81203 183.777 8.7819 183.828 8.72991C183.879 8.67792 183.908 8.60814 183.909 8.53527C183.91 8.4624 183.882 8.39213 183.832 8.33926C183.782 8.28639 183.713 8.25505 183.64 8.25184L177.634 8.20009C178.102 6.77057 179.047 5.82585 180.334 5.52152C182.331 5.05003 184.784 6.18451 186.935 8.564C184.743 10.9023 182.27 11.9941 180.282 11.4875L180.283 11.4868Z" fill="#F7E7CE"/>
</g>
<path d="M169.935 1.22976C169.927 1.173 169.897 1.12147 169.853 1.08493C169.809 1.0484 169.752 1.02941 169.695 1.03158C166.747 1.14116 164.488 2.24563 163.65 3.98586C163.08 5.17059 163.234 6.49044 164.08 7.71967L163.358 8.59607C163.337 8.61964 163.321 8.64717 163.311 8.67701C163.301 8.70686 163.297 8.73841 163.299 8.76979C163.302 8.80116 163.311 8.83172 163.325 8.85964C163.34 8.88756 163.36 8.91227 163.384 8.93229C163.408 8.95231 163.436 8.96724 163.467 8.97617C163.497 8.98511 163.528 8.98787 163.56 8.98431C163.591 8.98074 163.621 8.97091 163.649 8.9554C163.676 8.93989 163.7 8.91903 163.719 8.89405L164.442 8.01765C165.149 8.32587 165.845 8.44803 166.498 8.38517C167.111 8.32634 167.697 8.09854 168.189 7.72708C169.737 6.57296 170.39 4.14415 169.935 1.22976ZM167.909 7.35061C167.027 8.00768 165.916 8.10644 164.753 7.6392L167.936 3.77765C167.973 3.72946 167.99 3.6688 167.983 3.60847C167.976 3.54813 167.946 3.49282 167.899 3.45419C167.852 3.41556 167.792 3.39663 167.732 3.40139C167.671 3.40614 167.615 3.43421 167.575 3.47967L164.391 7.342C163.711 6.28949 163.595 5.18185 164.072 4.18891C164.814 2.64862 166.836 1.65459 169.505 1.50943C169.869 4.15541 169.279 6.32978 167.909 7.35139L167.909 7.35061Z" fill="#F7E7CE"/>
<path d="M166 8C164.934 8.12012 163.435 9.4669 163.435 10.6012C163.435 12.1353 162.839 14.891 160.871 13.7163C159.782 13.0672 159.771 11.1466 160.522 10.537C160.901 10.2301 161.109 10.7994 161.583 10.9063C162.503 11.1137 161.678 11.9742 161.44 12.3354" stroke="#F7C7CE" stroke-width="0.6" stroke-linecap="round"/>
<path d="M137.935 1.22976C137.927 1.173 137.897 1.12147 137.853 1.08493C137.809 1.0484 137.752 1.02941 137.695 1.03158C134.747 1.14116 132.488 2.24563 131.65 3.98586C131.08 5.17059 131.234 6.49044 132.08 7.71967L131.358 8.59607C131.337 8.61964 131.321 8.64717 131.311 8.67701C131.301 8.70686 131.297 8.73841 131.299 8.76979C131.302 8.80116 131.311 8.83172 131.325 8.85964C131.34 8.88756 131.36 8.91227 131.384 8.93229C131.408 8.95231 131.436 8.96724 131.467 8.97617C131.497 8.98511 131.528 8.98787 131.56 8.98431C131.591 8.98074 131.621 8.97091 131.649 8.9554C131.676 8.93989 131.7 8.91903 131.719 8.89405L132.442 8.01765C133.149 8.32587 133.845 8.44803 134.498 8.38517C135.111 8.32634 135.697 8.09854 136.189 7.72708C137.737 6.57296 138.39 4.14415 137.935 1.22976ZM135.909 7.35061C135.027 8.00768 133.916 8.10644 132.753 7.6392L135.936 3.77765C135.973 3.72946 135.99 3.6688 135.983 3.60847C135.976 3.54813 135.946 3.49282 135.899 3.45419C135.852 3.41556 135.792 3.39663 135.732 3.40139C135.671 3.40614 135.615 3.43421 135.575 3.47967L132.391 7.342C131.711 6.28949 131.595 5.18185 132.072 4.18891C132.814 2.64862 134.836 1.65459 137.505 1.50943C137.869 4.15541 137.279 6.32978 135.909 7.35139L135.909 7.35061Z" fill="#F7E7CE"/>
<path d="M134 8C132.934 8.12012 131.435 9.4669 131.435 10.6012C131.435 12.1353 130.839 14.891 128.871 13.7163C127.782 13.0672 127.771 11.1466 128.522 10.537C128.901 10.2301 129.109 10.7994 129.583 10.9063C130.503 11.1137 129.678 11.9742 129.44 12.3354" stroke="#F7C7CE" stroke-width="0.6" stroke-linecap="round"/>
<g clip-path="url(#clip4_39_22)">
<path d="M149.551 17.3739C149.594 17.412 149.65 17.4331 149.707 17.4331C149.765 17.4331 149.82 17.412 149.863 17.3739C152.068 15.4144 153.109 13.1249 152.648 11.2494C152.335 9.97244 151.376 9.05182 149.941 8.64164L149.941 7.50585C149.943 7.47439 149.937 7.44304 149.926 7.41365C149.915 7.38426 149.898 7.35745 149.876 7.3348C149.854 7.31216 149.828 7.29415 149.799 7.28185C149.77 7.26955 149.739 7.26321 149.707 7.26321C149.676 7.26321 149.645 7.26955 149.616 7.28185C149.587 7.29415 149.56 7.31216 149.539 7.3348C149.517 7.35745 149.5 7.38426 149.488 7.41365C149.477 7.44304 149.472 7.47439 149.473 7.50585L149.473 8.64164C148.731 8.85377 148.117 9.20208 147.653 9.66584C147.217 10.1016 146.91 10.6497 146.766 11.2494C146.306 13.1249 147.347 15.4141 149.551 17.3739ZM147.222 11.3618C147.484 10.2939 148.279 9.51088 149.474 9.13164L149.474 14.1361C149.476 14.1968 149.501 14.2543 149.545 14.2964C149.589 14.3386 149.647 14.3622 149.708 14.3622C149.769 14.3622 149.827 14.3386 149.871 14.2964C149.914 14.2543 149.94 14.1968 149.942 14.1361L149.941 9.13109C151.136 9.51033 151.93 10.2912 152.193 11.3612C152.601 13.0216 151.673 15.0744 149.706 16.8841C147.741 15.0744 146.814 13.0213 147.221 11.3612L147.222 11.3618Z" fill="#F7E7CE"/>
</g>
<path d="M148.282 9.64662C149.028 8.87594 149.328 6.88337 148.606 6.00807C147.63 4.82436 146.337 2.31902 148.604 1.97305C149.856 1.78185 151.087 3.25643 150.895 4.20473C150.798 4.68215 150.275 4.37519 149.841 4.59446C148.999 5.01972 149.089 3.8309 149.042 3.40111" stroke="#F7C7CE" stroke-width="0.6" stroke-linecap="round"/>
<g clip-path="url(#clip5_39_22)">
<path d="M117.551 17.3739C117.594 17.412 117.65 17.4331 117.707 17.4331C117.765 17.4331 117.82 17.412 117.863 17.3739C120.068 15.4144 121.109 13.1249 120.648 11.2494C120.335 9.97244 119.376 9.05182 117.941 8.64164L117.941 7.50585C117.943 7.47439 117.937 7.44304 117.926 7.41365C117.915 7.38426 117.898 7.35745 117.876 7.3348C117.854 7.31216 117.828 7.29415 117.799 7.28185C117.77 7.26955 117.739 7.26321 117.707 7.26321C117.676 7.26321 117.645 7.26955 117.616 7.28185C117.587 7.29415 117.56 7.31216 117.539 7.3348C117.517 7.35745 117.5 7.38426 117.488 7.41365C117.477 7.44304 117.472 7.47439 117.473 7.50585L117.473 8.64164C116.731 8.85377 116.117 9.20208 115.653 9.66584C115.217 10.1016 114.91 10.6497 114.766 11.2494C114.306 13.1249 115.347 15.4141 117.551 17.3739ZM115.222 11.3618C115.484 10.2939 116.279 9.51088 117.474 9.13164L117.474 14.1361C117.476 14.1968 117.501 14.2543 117.545 14.2964C117.589 14.3386 117.647 14.3622 117.708 14.3622C117.769 14.3622 117.827 14.3386 117.871 14.2964C117.914 14.2543 117.94 14.1968 117.942 14.1361L117.941 9.13109C119.136 9.51033 119.93 10.2912 120.193 11.3612C120.601 13.0216 119.673 15.0744 117.706 16.8841C115.741 15.0744 114.814 13.0213 115.221 11.3612L115.222 11.3618Z" fill="#F7E7CE"/>
</g>
<path d="M116.282 9.64662C117.028 8.87594 117.328 6.88337 116.606 6.00807C115.63 4.82436 114.337 2.31902 116.604 1.97305C117.856 1.78185 119.087 3.25643 118.895 4.20473C118.798 4.68215 118.275 4.37519 117.841 4.59446C116.999 5.01972 117.089 3.8309 117.042 3.40111" stroke="#F7C7CE" stroke-width="0.6" stroke-linecap="round"/>
<g clip-path="url(#clip6_39_22)">
<path d="M94.7055 2.646L93.8228 4.00421C92.6836 3.08284 91.0745 2.79721 89.824 3.05334C88.1222 3.40178 86.6938 4.93918 86.7648 7.16147C86.8396 9.50381 88.4745 11.2149 90.0426 12.6247C90.8267 13.3295 91.6314 13.9711 92.2279 14.5477C93.4055 15.6121 93.9761 17.4341 93.9761 17.4341C93.9761 17.4341 94.7427 15.5747 95.7242 14.635C96.3396 14.0506 97.1516 13.3972 97.9531 12.6684C99.5562 11.2108 101.216 9.41734 101.144 7.11784C101.144 3.29571 97.3561 3.33618 95.8972 4.66487C96.5011 4.34531 97.151 4.27746 97.7346 4.40818C98.8064 4.64828 99.6938 5.53115 99.745 7.16156C99.7938 8.72156 98.5235 10.2268 96.9916 11.6195C96.2257 12.3157 95.4368 12.9459 94.7627 13.5861C94.4047 13.9262 94.2396 14.2271 93.976 14.5797C93.7124 14.2052 93.5491 13.8901 93.1894 13.5424C91.4599 11.575 88.712 9.45234 88.6022 7.11781C88.5797 5.17343 90.8554 4.66143 92.0786 5.52281L90.6435 6.31212C92.7496 6.66037 94.5418 7.47962 96.4434 8.67425L94.7054 2.646H94.7055Z" fill="#F7E7CE"/>
</g>
<defs>
<clipPath id="clip0_39_22">
<rect width="12" height="12" fill="white" transform="translate(8.41089 18.9699) rotate(-134.5)"/>
</clipPath>
<clipPath id="clip1_39_22">
<rect width="10" height="10" fill="white" transform="translate(46.8486 7.71625) rotate(140.5)"/>
</clipPath>
<clipPath id="clip2_39_22">
<rect width="10" height="10" fill="white" transform="translate(78.8486 7.71625) rotate(140.5)"/>
</clipPath>
<clipPath id="clip3_39_22">
<rect width="12" height="12" fill="white" transform="translate(181.589 0.0300903) rotate(45.5)"/>
</clipPath>
<clipPath id="clip4_39_22">
<rect width="10" height="10" fill="white" transform="translate(143.151 11.2838) rotate(-39.5)"/>
</clipPath>
<clipPath id="clip5_39_22">
<rect width="10" height="10" fill="white" transform="translate(111.151 11.2838) rotate(-39.5)"/>
</clipPath>
<clipPath id="clip6_39_22">
<rect width="16" height="16" fill="white" transform="translate(86 2)"/>
</clipPath>
</defs>
</svg>
